# xmcd
#
# Track frame offsets:
#        150
#        19915
#        45562
#        65330
#
# Disc length: 1210 seconds
#
# Revision: 0
# Processed by: cddbd v1.5.1PL0 Copyright (c) Steve Scherf et al.
# Submitted via: ExactAudioCopy v0.95a5
#
DISCID=2c04b804
DTITLE=TAKASHI UTSUNOMIYA - blue reincarnation
DYEAR=2002
DGENRE=Ballad
TTITLE0=blue reincarnation
TTITLE1=The Theory
TTITLE2=blue reincarnation - TV MIX -
TTITLE3=The Theory - TV MIX -
EXTD=
EXTT0=
EXTT1=
EXTT2=
EXTT3=
PLAYORDER=
